<svg xmlns="http://www.w3.org/2000/svg" viewBox="0 0 100 100" fill="none">
  <rect x="10" y="10" width="80" height="80" rx="10" fill="#111827"/>
  <rect x="10" y="10" width="80" height="80" rx="10" stroke="#F97316" stroke-width="2"/>
  <path d="M20 30 H40 M60 30 H80 M20 50 H35 M65 50 H80 M20 70 H40 M60 70 H80" stroke="#94A3B8" stroke-width="2" stroke-opacity="0.9"/>
  <path d="M35 35 V65 M35 50 H65 M65 35 V65" stroke="#E5E7EB" stroke-width="6" stroke-linecap="round" stroke-linejoin="round"/>
  <path d="M40 40 L30 30 M60 40 L70 30" stroke="#E5E7EB" stroke-width="3" stroke-linecap="round" stroke-opacity="0.85"/>
  <circle cx="20" cy="30" r="2" fill="#E5E7EB"/>
  <circle cx="80" cy="30" r="2" fill="#E5E7EB"/>
  <circle cx="20" cy="50" r="2" fill="#E5E7EB"/>
  <circle cx="80" cy="50" r="2" fill="#E5E7EB"/>
  <circle cx="20" cy="70" r="2" fill="#E5E7EB"/>
  <circle cx="80" cy="70" r="2" fill="#E5E7EB"/>
  <text x="72" y="24" text-anchor="middle" fill="#F97316" font-size="14" font-weight="700" font-family="Arial, sans-serif">BCH</text>
</svg>
